<svg width="48" height="48" viewBox="0 0 48 48" fill="none" xmlns="http://www.w3.org/2000/svg">
<path d="M24 17.28C23.424 17.28 23.04 16.896 23.04 16.32V8.63999C23.04 8.06399 23.424 7.67999 24 7.67999C24.576 7.67999 24.96 8.06399 24.96 8.63999V16.32C24.96 16.896 24.576 17.28 24 17.28Z" fill="white"/>
<path opacity="0.3" d="M24 40.32C23.424 40.32 23.04 39.936 23.04 39.36V31.68C23.04 31.104 23.424 30.72 24 30.72C24.576 30.72 24.96 31.104 24.96 31.68V39.36C24.96 39.936 24.576 40.32 24 40.32ZM27.84 18.24C27.648 18.24 27.552 18.24 27.36 18.144C26.976 17.856 26.784 17.376 27.072 16.896L30.912 10.272C31.2 9.888 31.68 9.696 32.16 9.984C32.544 10.272 32.736 10.752 32.448 11.232L28.608 17.856C28.416 18.048 28.128 18.24 27.84 18.24V18.24ZM16.32 38.208C16.128 38.208 16.032 38.208 15.84 38.112C15.456 37.824 15.264 37.344 15.552 36.864L19.392 30.24C19.68 29.856 20.16 29.664 20.64 29.952C21.024 30.24 21.216 30.72 20.928 31.2L17.088 37.824C16.896 38.016 16.608 38.208 16.32 38.208Z" fill="white"/>
<path opacity="0.93" d="M20.16 18.24C19.872 18.24 19.584 18.048 19.392 17.76L15.552 11.136C15.264 10.752 15.456 10.176 15.84 9.888C16.224 9.6 16.8 9.792 17.088 10.176L20.928 16.8C21.216 17.184 21.024 17.76 20.64 18.048C20.448 18.24 20.352 18.24 20.16 18.24Z" fill="white"/>
<path opacity="0.3" d="M31.68 38.208C31.392 38.208 31.104 38.016 30.912 37.728L27.072 31.104C26.784 30.72 26.976 30.144 27.36 29.856C27.744 29.568 28.32 29.76 28.608 30.144L32.448 36.768C32.736 37.152 32.544 37.728 32.16 38.016C31.968 38.112 31.872 38.208 31.68 38.208V38.208Z" fill="white"/>
<path opacity="0.65" d="M16.32 24.96H8.63999C8.06399 24.96 7.67999 24.576 7.67999 24C7.67999 23.424 8.06399 23.04 8.63999 23.04H16.32C16.896 23.04 17.28 23.424 17.28 24C17.28 24.576 16.896 24.96 16.32 24.96Z" fill="white"/>
<path opacity="0.3" d="M39.36 24.96H31.68C31.104 24.96 30.72 24.576 30.72 24C30.72 23.424 31.104 23.04 31.68 23.04H39.36C39.936 23.04 40.32 23.424 40.32 24C40.32 24.576 39.936 24.96 39.36 24.96Z" fill="white"/>
<path opacity="0.86" d="M17.376 21.024C17.184 21.024 17.088 21.024 16.896 20.928L10.272 17.088C9.888 16.8 9.696 16.32 9.984 15.84C10.272 15.456 10.752 15.264 11.232 15.552L17.856 19.392C18.24 19.68 18.432 20.16 18.144 20.64C17.952 20.928 17.664 21.024 17.376 21.024V21.024Z" fill="white"/>
<path opacity="0.3" d="M37.344 32.544C37.152 32.544 37.056 32.544 36.864 32.448L30.24 28.608C29.856 28.32 29.664 27.84 29.952 27.36C30.24 26.976 30.72 26.784 31.2 27.072L37.824 30.912C38.208 31.2 38.4 31.68 38.112 32.16C37.92 32.448 37.632 32.544 37.344 32.544V32.544Z" fill="white"/>
<path opacity="0.44" d="M10.656 32.544C10.368 32.544 10.08 32.352 9.888 32.064C9.6 31.68 9.792 31.104 10.176 30.816L16.8 26.976C17.184 26.688 17.76 26.88 18.048 27.264C18.336 27.648 18.144 28.224 17.76 28.512L11.136 32.352C11.04 32.544 10.848 32.544 10.656 32.544V32.544Z" fill="white"/>
<path opacity="0.3" d="M30.624 21.024C30.336 21.024 30.048 20.832 29.856 20.544C29.568 20.16 29.76 19.584 30.144 19.296L36.768 15.456C37.152 15.168 37.728 15.36 38.016 15.744C38.304 16.128 38.112 16.704 37.728 16.992L31.104 20.832C30.912 21.024 30.816 21.024 30.624 21.024Z" fill="white"/>
</svg>
